<svg xmlns="http://www.w3.org/2000/svg" viewBox="0 0 160 160" width="160" height="160" role="img">
<style>
.tw,.blink,.fl,.wr,.pop,.bob,.tagA,.tagB,.img,.pen,.hl,.strike,.up,.sun,.wand,.star,.pic,.mt,.scan,.hit,.mer,.mer2,.cur,.typ{transform-box:fill-box}
.tw{transform-origin:50% 50%;animation:tw 2s ease-in-out infinite}
@keyframes tw{0%,100%{transform:scale(1) rotate(0);opacity:1}50%{transform:scale(.5) rotate(45deg);opacity:.45}}
.blink{transform-origin:50% 50%;animation:blink 3s infinite}
@keyframes blink{0%,86%,100%{transform:scaleY(1)}91%{transform:scaleY(.1)}}
.fl{animation:fl 3s ease-in-out infinite}
@keyframes fl{0%,100%{transform:translateY(0)}50%{transform:translateY(-4px)}}
.wr{transform-origin:0% 50%;animation:wr 6s ease-in-out infinite}
@keyframes wr{0%,6%{transform:scaleX(0)}16%,88%{transform:scaleX(1)}96%,100%{transform:scaleX(0)}}
.pop{transform-origin:50% 100%;animation:pop 6s ease-out infinite}
.bob{transform-origin:50% 100%;animation:bob 6s ease-in-out infinite}
@media (prefers-reduced-motion: reduce){*{animation:none !important}}
.scan{animation:scan 4s ease-in-out infinite}
@keyframes scan{0%,100%{transform:translate(0,0)}25%{transform:translate(-22px,-14px)}50%{transform:translate(-34px,8px)}75%{transform:translate(-10px,16px)}}
.hit{transform-origin:0% 50%;animation:wr 4s ease-in-out infinite}
.rb{transform-box:fill-box;transform-origin:50% 100%;animation:rb 3s ease-in-out infinite}
@keyframes rb{0%,100%{transform:translateY(0)}50%{transform:translateY(-3px)}}
.wv{transform-box:fill-box;transform-origin:0% 100%;animation:wv 1.5s ease-in-out infinite}
@keyframes wv{0%,100%{transform:rotate(0)}50%{transform:rotate(16deg)}}
.wvL{transform-box:fill-box;transform-origin:100% 100%;animation:wvL 1.5s ease-in-out infinite}
@keyframes wvL{0%,100%{transform:rotate(0)}50%{transform:rotate(-16deg)}}
</style>
<defs>
<filter id="rough" filterUnits="userSpaceOnUse" x="-10" y="-10" width="180" height="180">
<feTurbulence type="fractalNoise" baseFrequency="0.05" numOctaves="2" seed="7" result="n"/>
<feDisplacementMap in="SourceGraphic" in2="n" scale="1.8" xChannelSelector="R" yChannelSelector="G"/></filter>
<filter id="grain" filterUnits="userSpaceOnUse" x="-200" y="-200" width="560" height="560">
<feTurbulence type="fractalNoise" baseFrequency="1.1" numOctaves="2" seed="4" result="n"/>
<feColorMatrix in="n" type="matrix" values="0 0 0 0 0  0 0 0 0 0  0 0 0 0 0  0 0 0 -2.2 2.1" result="m"/>
<feComposite in="SourceGraphic" in2="m" operator="in"/></filter>
</defs>
<g filter="url(#rough)"><g transform="translate(28 0) scale(0.82)"><g transform="rotate(-12 50 80)"><path d="M18 36 L64 36 L74 46 L74 112 L18 112 Z" fill="#FBF8F1" stroke="#2A2622" stroke-width="2.4" stroke-linejoin="round" stroke-linecap="round"/><path d="M64 36 v10 h10" fill="none" stroke="#2A2622" stroke-width="2.4" stroke-linejoin="round" stroke-linecap="round"/><path d="M26 52 h34" stroke="#2A2622" stroke-width="2" stroke-linecap="round"/><path d="M26 60 h26" stroke="#2A2622" stroke-width="2" stroke-linecap="round"/><path d="M26 68 h36" stroke="#2A2622" stroke-width="2" stroke-linecap="round"/><path d="M16 92.6 Q31.6 91.4 47.2 92 Q51.2 92 51.2 96 Q51.800000000000004 100.5 51.2 105 Q51.2 109 47.2 109 Q31.6 109.6 16 109 Q12 109 12 105 Q11.4 100.5 12 96 Q12 92 16 92.6Z" fill="#E0644B" stroke="#2A2622" stroke-width="2" stroke-linejoin="round" stroke-linecap="round"/><text x="31.6" y="104.6" text-anchor="middle" font-family="Poppins, Helvetica, Arial, sans-serif" font-weight="700" font-size="11" fill="#FBF8F1" letter-spacing=".3">PDF</text></g><g transform="rotate(10 112 76)"><path d="M86 30 L132 30 L142 40 L142 106 L86 106 Z" fill="#FBF8F1" stroke="#2A2622" stroke-width="2.4" stroke-linejoin="round" stroke-linecap="round"/><path d="M132 30 v10 h10" fill="none" stroke="#2A2622" stroke-width="2.4" stroke-linejoin="round" stroke-linecap="round"/><path d="M97 44.6 Q114.0 43.4 131 44 Q134 44 134 47 Q134.6 58.0 134 69 Q134 72 131 72 Q114.0 72.6 97 72 Q94 72 94 69 Q93.4 58.0 94 47 Q94 44 97 44.6Z" fill="#D3E0F8" filter="url(#grain)"/><path d="M96 70 l10 -11 l7 7 l5 -4 l14 8" fill="none" stroke="#2A2622" stroke-linejoin="round" stroke-linecap="round" stroke-width="2"/><path d="M97 44.6 Q114.0 43.4 131 44 Q134 44 134 47 Q134.6 58.0 134 69 Q134 72 131 72 Q114.0 72.6 97 72 Q94 72 94 69 Q93.4 58.0 94 47 Q94 44 97 44.6Z" fill="none" stroke="#2A2622" stroke-linejoin="round" stroke-linecap="round" stroke-width="2"/><path d="M94 82 h34" stroke="#2A2622" stroke-width="2" stroke-linecap="round"/><path d="M94 90 h24" stroke="#2A2622" stroke-width="2" stroke-linecap="round"/></g><g><path d="M50 22 L99 22 L110 33 L110 108 L50 108 Z" fill="#FBF8F1" stroke="#2A2622" stroke-width="2.4" stroke-linejoin="round" stroke-linecap="round"/><path d="M99 22 v11 h11" fill="none" stroke="#2A2622" stroke-width="2.4" stroke-linejoin="round" stroke-linecap="round"/><path d="M58 40 h40" stroke="#2A2622" stroke-width="2" stroke-linecap="round"/><path d="M58 49 h30" stroke="#2A2622" stroke-width="2" stroke-linecap="round"/><path d="M58 58 h42" stroke="#2A2622" stroke-width="2" stroke-linecap="round"/><path d="M58 67 h34" stroke="#2A2622" stroke-width="2" stroke-linecap="round"/><path class="hit" d="M59 74.6 Q79.0 73.4 99 74 Q102 74 102 77 Q102.6 80.0 102 83 Q102 86 99 86 Q79.0 86.6 59 86 Q56 86 56 83 Q55.4 80.0 56 77 Q56 74 59 74.6Z" fill="#F4E3A8" filter="url(#grain)"/><path d="M58 80 h36" stroke="#2A2622" stroke-width="2" stroke-linecap="round"/><path d="M80 92.6 Q99.8 91.4 119.6 92 Q123.6 92 123.6 96 Q124.19999999999999 100.5 123.6 105 Q123.6 109 119.6 109 Q99.8 109.6 80 109 Q76 109 76 105 Q75.4 100.5 76 96 Q76 92 80 92.6Z" fill="#4880E6" stroke="#2A2622" stroke-width="2" stroke-linejoin="round" stroke-linecap="round"/><text x="99.8" y="104.6" text-anchor="middle" font-family="Poppins, Helvetica, Arial, sans-serif" font-weight="700" font-size="11" fill="#FBF8F1" letter-spacing=".3">DOCX</text></g><g class="scan"><circle cx="112" cy="106" r="17" fill="#FFFFFF" fill-opacity=".45" stroke="#2A2622" stroke-width="3"/><path d="M124 118 l14 14" stroke="#2A2622" stroke-width="6" stroke-linecap="round"/><path d="M104 99 q4 -5 10 -3" fill="none" stroke="#2A2622" stroke-linejoin="round" stroke-linecap="round" stroke-width="2"/></g><path class="tw" style="animation-delay:-0.5s" d="M140 15.2 v4 M140 24.8 v-4 M135.2 20 h4 M144.8 20 h-4" fill="none" stroke="#2A2622" stroke-linejoin="round" stroke-linecap="round" stroke-width="2"/></g><g transform="translate(26 152) scale(0.9)"><g class="rb" style="animation-delay:-0.3s"><path d="M-18.5 -23.4 Q-18.5 -24.6 -18.5 -24 Q-15 -24 -15 -20.5 Q-14.4 -16.0 -15 -11.5 Q-15 -8 -18.5 -8 Q-18.5 -7.4 -18.5 -8 Q-22 -8 -22 -11.5 Q-22.6 -16.0 -22 -20.5 Q-22 -24 -18.5 -23.4Z" fill="#FBF8F1" stroke="#2A2622" stroke-width="2.4" stroke-linejoin="round" stroke-linecap="round"/><path d="M-18.0 -21.2 Q-18.0 -22.400000000000002 -18.0 -21.8 Q-16 -21.8 -16 -19.8 Q-15.4 -15.3 -16 -10.8 Q-16 -8.8 -18.0 -8.8 Q-18.0 -8.200000000000001 -18.0 -8.8 Q-20 -8.8 -20 -10.8 Q-20.6 -15.3 -20 -19.8 Q-20 -21.8 -18.0 -21.2Z" fill="#D3E0F8" filter="url(#grain)"/><path d="M-18.5 -23.4 Q-18.5 -24.6 -18.5 -24 Q-15 -24 -15 -20.5 Q-14.4 -16.0 -15 -11.5 Q-15 -8 -18.5 -8 Q-18.5 -7.4 -18.5 -8 Q-22 -8 -22 -11.5 Q-22.6 -16.0 -22 -20.5 Q-22 -24 -18.5 -23.4Z" fill="none" stroke="#2A2622" stroke-width="2.4" stroke-linejoin="round" stroke-linecap="round"/><g class="wv"><g transform="rotate(-135 18 -22)"><path d="M18.5 -23.4 Q18.5 -24.6 18.5 -24 Q22 -24 22 -20.5 Q22.6 -16.0 22 -11.5 Q22 -8 18.5 -8 Q18.5 -7.4 18.5 -8 Q15 -8 15 -11.5 Q14.4 -16.0 15 -20.5 Q15 -24 18.5 -23.4Z" fill="#FBF8F1" stroke="#2A2622" stroke-width="2.4" stroke-linejoin="round" stroke-linecap="round"/><path d="M19.0 -21.2 Q19.0 -22.400000000000002 19.0 -21.8 Q21 -21.8 21 -19.8 Q21.6 -15.3 21 -10.8 Q21 -8.8 19.0 -8.8 Q19.0 -8.200000000000001 19.0 -8.8 Q17 -8.8 17 -10.8 Q16.4 -15.3 17 -19.8 Q17 -21.8 19.0 -21.2Z" fill="#D3E0F8" filter="url(#grain)"/><path d="M18.5 -23.4 Q18.5 -24.6 18.5 -24 Q22 -24 22 -20.5 Q22.6 -16.0 22 -11.5 Q22 -8 18.5 -8 Q18.5 -7.4 18.5 -8 Q15 -8 15 -11.5 Q14.4 -16.0 15 -20.5 Q15 -24 18.5 -23.4Z" fill="none" stroke="#2A2622" stroke-width="2.4" stroke-linejoin="round" stroke-linecap="round"/></g></g><path d="M-7 -27.4 Q0.0 -28.6 7 -28 Q14 -28 14 -21 Q14.6 -15.0 14 -9 Q14 -2 7 -2 Q0.0 -1.4 -7 -2 Q-14 -2 -14 -9 Q-14.6 -15.0 -14 -21 Q-14 -28 -7 -27.4Z" fill="#FBF8F1" stroke="#2A2622" stroke-width="2.4" stroke-linejoin="round" stroke-linecap="round"/><path d="M-6.5 -25.2 Q0.5 -26.400000000000002 7.5 -25.8 Q13 -25.8 13 -20.3 Q13.6 -14.3 13 -8.3 Q13 -2.8000000000000007 7.5 -2.8000000000000007 Q0.5 -2.2000000000000006 -6.5 -2.8000000000000007 Q-12 -2.8000000000000007 -12 -8.3 Q-12.6 -14.3 -12 -20.3 Q-12 -25.8 -6.5 -25.2Z" fill="#D3E0F8" filter="url(#grain)"/><path d="M-7 -27.4 Q0.0 -28.6 7 -28 Q14 -28 14 -21 Q14.6 -15.0 14 -9 Q14 -2 7 -2 Q0.0 -1.4 -7 -2 Q-14 -2 -14 -9 Q-14.6 -15.0 -14 -21 Q-14 -28 -7 -27.4Z" fill="none" stroke="#2A2622" stroke-width="2.4" stroke-linejoin="round" stroke-linecap="round"/><path d="M-4 -22.4 Q0.0 -23.6 4 -23 Q6 -23 6 -21 Q6.6 -19.0 6 -17 Q6 -15 4 -15 Q0.0 -14.4 -4 -15 Q-6 -15 -6 -17 Q-6.6 -19.0 -6 -21 Q-6 -23 -4 -22.4Z" fill="#FBF8F1" stroke="#2A2622" stroke-width="2.4" stroke-linejoin="round" stroke-linecap="round"/><path d="M-3 -20.2 Q0.5 -21.400000000000002 4 -20.8 Q5 -20.8 5 -19.8 Q5.6 -18.3 5 -16.8 Q5 -15.8 4 -15.8 Q0.5 -15.200000000000001 -3 -15.8 Q-4 -15.8 -4 -16.8 Q-4.6 -18.3 -4 -19.8 Q-4 -20.8 -3 -20.2Z" fill="#4880E6" filter="url(#grain)"/><path d="M-4 -22.4 Q0.0 -23.6 4 -23 Q6 -23 6 -21 Q6.6 -19.0 6 -17 Q6 -15 4 -15 Q0.0 -14.4 -4 -15 Q-6 -15 -6 -17 Q-6.6 -19.0 -6 -21 Q-6 -23 -4 -22.4Z" fill="none" stroke="#2A2622" stroke-width="2.4" stroke-linejoin="round" stroke-linecap="round"/><g class="" style="animation-delay:0.3s"><path d="M0 -59.0 v-7" fill="none" stroke="#2A2622" stroke-width="2.4" stroke-linejoin="round" stroke-linecap="round"/><circle cx="0.7" cy="-69.3" r="4.0" fill="#4880E6" filter="url(#grain)"/><circle cx="0" cy="-70.0" r="4.4" fill="none" stroke="#2A2622" stroke-width="2.4" stroke-linejoin="round" stroke-linecap="round"/><circle cx="0" cy="-70.0" r="1.4" fill="#FBF8F1"/><path d="M-19.0 -48.4 Q-19.0 -49.6 -19.0 -49 Q-16.5 -49 -16.5 -46.5 Q-15.9 -44.0 -16.5 -41.5 Q-16.5 -39 -19.0 -39 Q-19.0 -38.4 -19.0 -39 Q-21.5 -39 -21.5 -41.5 Q-22.1 -44.0 -21.5 -46.5 Q-21.5 -49 -19.0 -48.4Z" fill="#FBF8F1" stroke="#2A2622" stroke-width="2.4" stroke-linejoin="round" stroke-linecap="round"/><path d="M-18.5 -46.199999999999996 Q-18.5 -47.4 -18.5 -46.8 Q-17.5 -46.8 -17.5 -45.8 Q-16.9 -43.3 -17.5 -40.8 Q-17.5 -39.8 -18.5 -39.8 Q-18.5 -39.199999999999996 -18.5 -39.8 Q-19.5 -39.8 -19.5 -40.8 Q-20.1 -43.3 -19.5 -45.8 Q-19.5 -46.8 -18.5 -46.199999999999996Z" fill="#4880E6" filter="url(#grain)"/><path d="M-19.0 -48.4 Q-19.0 -49.6 -19.0 -49 Q-16.5 -49 -16.5 -46.5 Q-15.9 -44.0 -16.5 -41.5 Q-16.5 -39 -19.0 -39 Q-19.0 -38.4 -19.0 -39 Q-21.5 -39 -21.5 -41.5 Q-22.1 -44.0 -21.5 -46.5 Q-21.5 -49 -19.0 -48.4Z" fill="none" stroke="#2A2622" stroke-width="2.4" stroke-linejoin="round" stroke-linecap="round"/><path d="M19.0 -48.4 Q19.0 -49.6 19.0 -49 Q21.5 -49 21.5 -46.5 Q22.1 -44.0 21.5 -41.5 Q21.5 -39 19.0 -39 Q19.0 -38.4 19.0 -39 Q16.5 -39 16.5 -41.5 Q15.9 -44.0 16.5 -46.5 Q16.5 -49 19.0 -48.4Z" fill="#FBF8F1" stroke="#2A2622" stroke-width="2.4" stroke-linejoin="round" stroke-linecap="round"/><path d="M19.5 -46.199999999999996 Q19.5 -47.4 19.5 -46.8 Q20.5 -46.8 20.5 -45.8 Q21.1 -43.3 20.5 -40.8 Q20.5 -39.8 19.5 -39.8 Q19.5 -39.199999999999996 19.5 -39.8 Q18.5 -39.8 18.5 -40.8 Q17.9 -43.3 18.5 -45.8 Q18.5 -46.8 19.5 -46.199999999999996Z" fill="#4880E6" filter="url(#grain)"/><path d="M19.0 -48.4 Q19.0 -49.6 19.0 -49 Q21.5 -49 21.5 -46.5 Q22.1 -44.0 21.5 -41.5 Q21.5 -39 19.0 -39 Q19.0 -38.4 19.0 -39 Q16.5 -39 16.5 -41.5 Q15.9 -44.0 16.5 -46.5 Q16.5 -49 19.0 -48.4Z" fill="none" stroke="#2A2622" stroke-width="2.4" stroke-linejoin="round" stroke-linecap="round"/><path d="M-9.0 -58.4 Q0.0 -59.6 9.0 -59.0 Q18.0 -59.0 18.0 -50.0 Q18.6 -44.0 18.0 -38.0 Q18.0 -29.0 9.0 -29.0 Q0.0 -28.4 -9.0 -29.0 Q-18.0 -29.0 -18.0 -38.0 Q-18.6 -44.0 -18.0 -50.0 Q-18.0 -59.0 -9.0 -58.4Z" fill="#FBF8F1" stroke="#2A2622" stroke-width="2.4" stroke-linejoin="round" stroke-linecap="round"/><path d="M-8.5 -56.199999999999996 Q0.5 -57.4 9.5 -56.8 Q17.0 -56.8 17.0 -49.3 Q17.6 -43.3 17.0 -37.3 Q17.0 -29.799999999999997 9.5 -29.799999999999997 Q0.5 -29.199999999999996 -8.5 -29.799999999999997 Q-16.0 -29.799999999999997 -16.0 -37.3 Q-16.6 -43.3 -16.0 -49.3 Q-16.0 -56.8 -8.5 -56.199999999999996Z" fill="#4880E6" filter="url(#grain)"/><path d="M-9.0 -58.4 Q0.0 -59.6 9.0 -59.0 Q18.0 -59.0 18.0 -50.0 Q18.6 -44.0 18.0 -38.0 Q18.0 -29.0 9.0 -29.0 Q0.0 -28.4 -9.0 -29.0 Q-18.0 -29.0 -18.0 -38.0 Q-18.6 -44.0 -18.0 -50.0 Q-18.0 -59.0 -9.0 -58.4Z" fill="none" stroke="#2A2622" stroke-width="2.4" stroke-linejoin="round" stroke-linecap="round"/><path d="M-8.0 -53.4 Q0.0 -54.6 8.0 -54.0 Q13.0 -54.0 13.0 -49.0 Q13.6 -44.0 13.0 -39.0 Q13.0 -34.0 8.0 -34.0 Q0.0 -33.4 -8.0 -34.0 Q-13.0 -34.0 -13.0 -39.0 Q-13.6 -44.0 -13.0 -49.0 Q-13.0 -54.0 -8.0 -53.4Z" fill="#FBF8F1" stroke="#2A2622" stroke-width="2" stroke-linejoin="round" stroke-linecap="round"/><g class="blink" style="animation-delay:-0.4s"><path d="M-5 -47 v4 M5 -47 v4" stroke="#2A2622" stroke-width="2.8" stroke-linecap="round"/></g><path d="M-3.5 -40 q3.5 3 7 0" fill="none" stroke="#2A2622" stroke-linejoin="round" stroke-linecap="round" stroke-width="2"/></g></g></g></g>
</svg>